# xmcd
#
# Track frame offsets: 
#        150
#        21275
#        33865
#        53522
#        75102
#        93812
#        114587
#        138720
#        160200
#        176875
#        197782
#        217910
#        236437
#
# Disc length: 3455 seconds
#
# Revision: 2
# Processed by: cddbd v1.5.1PL2 Copyright (c) Steve Scherf et al.
# Submitted via: ExactAudioCopy v0.95b3
#
DISCID=9e0d7d0d
DTITLE=El Personal - No Me Hallo [Y Algo Más]
DYEAR=1988
DGENRE=Latin Fusion
TTITLE0=Niño Déjese Ahi!
TTITLE1=No Te Hagas
TTITLE2=Dále De Comer Al Conejíto
TTITLE3=Menjúrje
TTITLE4=La Tapatía
TTITLE5=No Me Hallo
TTITLE6=Nosotros Somos Los Marranos
TTITLE7=Broche De Oro
TTITLE8=Rumba Sin Rumbo (Live @ Foro De Arte Y Cultura)
TTITLE9=Centerfold Blues (Live @ Peña Cuicacalli)
TTITLE10=El Muso (Live @ Teatro Degollado)
TTITLE11=El Último Camión (Live @ Peña Cuicacalli)
TTITLE12=Nosotros Somos Los Marranos ('92 Remix)
EXTD=
EXTT0=
EXTT1=
EXTT2=
EXTT3=
EXTT4=
EXTT5=
EXTT6=
EXTT7=
EXTT8=
EXTT9=
EXTT10=
EXTT11=
EXTT12=
PLAYORDER=
